<svg width="49" height="46" viewBox="0 0 49 46" fill="none" xmlns="http://www.w3.org/2000/svg">
<path d="M10.923 24.9167C13.3525 24.9167 13.8221 26.8334 17.7217 26.8334C21.703 26.8334 21.9888 24.9167 24.5205 24.9167C26.95 24.9167 27.4196 26.8334 31.3192 26.8334C35.3005 26.8334 35.5863 24.9167 38.118 24.9167C40.5475 24.9167 40.9763 26.7951 44.8759 26.8334V23.0001C42.4463 23.0001 41.9767 21.0834 38.0771 21.0834C34.0959 21.0834 33.81 23.0001 31.2784 23.0001C28.8488 23.0001 28.3792 21.0834 24.4796 21.0834C20.4984 21.0834 20.2125 23.0001 17.6809 23.0001C15.2513 23.0001 14.7817 21.0834 10.8821 21.0834C6.90087 21.0834 6.61504 23.0001 4.08337 23.0001V26.8334C7.96254 26.8334 8.51379 24.9167 10.923 24.9167ZM38.118 28.7501C34.1367 28.7501 33.8509 30.6667 31.3192 30.6667C28.8896 30.6667 28.42 28.7501 24.5205 28.7501C20.5392 28.7501 20.233 30.6667 17.7013 30.6667C15.1696 30.6667 14.8838 28.7501 10.9025 28.7501C6.92129 28.7501 6.61504 30.6667 4.08337 30.6667V34.5001C8.06462 34.5001 8.39129 32.5834 10.9025 32.5834C13.4342 32.5834 13.72 34.5001 17.7013 34.5001C21.6825 34.5001 21.9888 32.5834 24.5205 32.5834C26.95 32.5834 27.4196 34.5001 31.3192 34.5001C35.28 34.5001 35.5863 32.5834 38.118 32.5834C40.5475 32.5834 41.0171 34.5001 44.9167 34.5001V30.6667C42.385 30.6667 42.0992 28.7501 38.118 28.7501ZM10.923 17.2501C13.3525 17.2501 13.8221 19.1667 17.7217 19.1667C21.703 19.1667 21.9888 17.2501 24.5205 17.2501C26.95 17.2501 27.4196 19.1667 31.3192 19.1667C35.3005 19.1667 35.5863 17.2501 38.118 17.2501C40.5475 17.2501 40.9763 19.1284 44.8759 19.1667V15.3334C42.4463 15.3334 41.9767 13.4167 38.0771 13.4167C34.0959 13.4167 33.81 15.3334 31.2784 15.3334C28.8488 15.3334 28.3792 13.4167 24.4796 13.4167C20.4984 13.4167 20.2125 15.3334 17.6809 15.3334C15.2513 15.3334 14.7817 13.4167 10.8821 13.4167C6.90087 13.4167 6.61504 15.3334 4.08337 15.3334V19.1667C7.96254 19.1667 8.51379 17.2501 10.923 17.2501Z" fill="black"/>
</svg>
