<svg width="46" height="43" viewBox="0 0 46 43" fill="none" xmlns="http://www.w3.org/2000/svg">
<path d="M12.65 6.45005H33.35C33.96 6.45005 34.5451 6.67657 34.9764 7.07977C35.4077 7.48297 35.65 8.02983 35.65 8.60005H10.35C10.35 8.02983 10.5924 7.48297 11.0237 7.07977C11.455 6.67657 12.0401 6.45005 12.65 6.45005ZM8.05005 8.60005V9.67505C8.05005 9.72235 8.05312 9.76893 8.05925 9.8148L11.1573 34.8924C11.2866 35.9403 11.8233 36.9073 12.6656 37.6094C13.5078 38.3114 14.5967 38.6996 15.7251 38.7001H30.2772C31.4054 38.6997 32.494 38.3118 33.3361 37.6102C34.1783 36.9085 34.7153 35.9421 34.845 34.8945L37.9408 9.81265L37.95 9.7073V8.60005C37.95 7.45962 37.4654 6.3659 36.6027 5.55949C35.7401 4.75308 34.57 4.30005 33.35 4.30005H12.65C11.4301 4.30005 10.26 4.75308 9.39736 5.55949C8.53469 6.3659 8.05005 7.45962 8.05005 8.60005ZM25.9877 16.6625L27.0273 18.3438C27.1029 18.4662 27.1518 18.6013 27.1715 18.7414C27.1912 18.8815 27.1811 19.0239 27.1419 19.1603C27.1027 19.2968 27.0352 19.4247 26.9431 19.5367C26.851 19.6488 26.7362 19.7428 26.6053 19.8134C26.4744 19.884 26.3298 19.9297 26.18 19.9481C26.0301 19.9665 25.8778 19.9571 25.7319 19.9205C25.5859 19.8838 25.4491 19.8207 25.3292 19.7346C25.2093 19.6485 25.1088 19.5412 25.0332 19.4188L23.9959 17.7375C23.895 17.5741 23.7498 17.4384 23.575 17.3441C23.4002 17.2498 23.2019 17.2001 23 17.2001C22.7982 17.2001 22.5999 17.2498 22.4251 17.3441C22.2503 17.4384 22.1051 17.5741 22.0041 17.7375L20.9645 19.4188C20.8896 19.5421 20.7893 19.6503 20.6694 19.7371C20.5496 19.824 20.4125 19.8878 20.2661 19.925C20.1198 19.9621 19.967 19.9718 19.8166 19.9536C19.6662 19.9353 19.5212 19.8894 19.3898 19.8185C19.2585 19.7476 19.1434 19.6531 19.0513 19.5405C18.9592 19.4279 18.8918 19.2994 18.853 19.1623C18.8143 19.0252 18.8049 18.8824 18.8254 18.7419C18.846 18.6014 18.896 18.4662 18.9727 18.3438L20.0123 16.6625C21.3394 14.5125 24.6583 14.5125 25.9877 16.6625ZM27.9795 24.1875L27.7311 23.7876C27.5786 23.5405 27.5374 23.2468 27.6166 22.9712C27.6957 22.6956 27.8888 22.4607 28.1532 22.3181C28.4176 22.1756 28.7318 22.1371 29.0266 22.211C29.3215 22.285 29.5727 22.4655 29.7252 22.7127L29.9713 23.1125C30.2741 23.6028 30.4336 24.1589 30.4336 24.725C30.4336 25.2911 30.2742 25.8473 29.9714 26.3375C29.6686 26.8278 29.2331 27.2349 28.7086 27.518C28.1842 27.801 27.5892 27.95 26.9836 27.9501H25.3C24.9951 27.9501 24.7025 27.8368 24.4869 27.6352C24.2712 27.4336 24.15 27.1602 24.15 26.875C24.15 26.5899 24.2712 26.3165 24.4869 26.1149C24.7025 25.9133 24.9951 25.8 25.3 25.8H26.9836C27.1855 25.8 27.3838 25.7504 27.5586 25.656C27.7335 25.5617 27.8786 25.426 27.9796 25.2625C28.0805 25.0991 28.1336 24.9137 28.1336 24.725C28.1336 24.5363 28.0805 24.351 27.9795 24.1875ZM20.7 25.8C21.005 25.8 21.2976 25.9133 21.5132 26.1149C21.7289 26.3165 21.85 26.5899 21.85 26.875C21.85 27.1602 21.7289 27.4336 21.5132 27.6352C21.2976 27.8368 21.005 27.9501 20.7 27.9501H19.0164C18.4107 27.9504 17.8154 27.8017 17.2907 27.5188C16.7659 27.2359 16.3301 26.8288 16.027 26.3384C15.7239 25.8481 15.5643 25.2918 15.5642 24.7256C15.5641 24.1593 15.7236 23.603 16.0264 23.1125L16.2748 22.7127C16.4284 22.4678 16.6794 22.2896 16.973 22.217C17.2666 22.1445 17.579 22.1834 17.8419 22.3254C18.1049 22.4673 18.2972 22.7007 18.3768 22.9747C18.4563 23.2486 18.4167 23.5409 18.2666 23.7876L18.0205 24.1875C17.9196 24.351 17.8665 24.5363 17.8665 24.725C17.8665 24.9137 17.9196 25.0991 18.0205 25.2625C18.1215 25.426 18.2666 25.5617 18.4415 25.656C18.6163 25.7504 18.8146 25.8 19.0164 25.8H20.7Z" fill="black"/>
</svg>
