<svg width="42" height="43" viewBox="0 0 42 43" fill="none" xmlns="http://www.w3.org/2000/svg">
<path d="M5.25 10.75L8.26175 29.2561C8.39804 30.0928 8.81982 30.8529 9.45206 31.4011C10.0843 31.9493 10.886 32.2501 11.7145 32.25H21M35.2835 19.7585L36.75 10.75" stroke="black" stroke-width="2" stroke-linecap="round" stroke-linejoin="round"/>
<path d="M6.10052 16.0623C6.39452 16.0993 6.69436 16.1202 7.00002 16.125C8.38252 16.1411 9.69327 15.8061 10.5 15.2292C11.3068 14.6558 12.6175 14.3208 14 14.3333C15.3825 14.3208 16.6933 14.6558 17.5 15.2292C18.3068 15.8061 19.6175 16.1411 21 16.125C22.3825 16.1411 23.6933 15.8061 24.5 15.2292C25.3068 14.6558 26.6175 14.3208 28 14.3333C29.3825 14.3208 30.6933 14.6558 31.5 15.2292C32.3068 15.8061 33.6175 16.1411 35 16.125C35.2987 16.1226 35.5921 16.1023 35.8803 16.0641M28 39.4167C28 39.4167 28 35.8333 33.25 32.25" stroke="black" stroke-width="2" stroke-linecap="round" stroke-linejoin="round"/>
<path d="M33.25 37.625C31.8576 37.625 30.5223 37.0587 29.5377 36.0507C28.5531 35.0427 28 33.6755 28 32.25C28 30.8245 28.5531 29.4573 29.5377 28.4493C30.5223 27.4413 31.8576 26.875 33.25 26.875H38.5V32.25C38.5 33.6755 37.9469 35.0427 36.9623 36.0507C35.9777 37.0587 34.6424 37.625 33.25 37.625Z" stroke="black" stroke-width="2" stroke-linecap="round" stroke-linejoin="round"/>
</svg>
