<svg width="25" height="40" viewBox="0 0 25 40" fill="none" xmlns="http://www.w3.org/2000/svg">
<path d="M9.375 0H15.625C16.6641 0 17.5 0.835938 17.5 1.875V5H7.5V1.875C7.5 0.835938 8.33594 0 9.375 0ZM2.5 13.0859C2.5 11.5625 3.28125 10.1484 4.57812 9.34375L5.8125 8.57031C6.92969 7.86719 8.21875 7.5 9.53906 7.5H15.4609C16.7812 7.5 18.0703 7.86719 19.1875 8.57031L20.4219 9.34375C21.7188 10.1484 22.5 11.5625 22.5 13.0859C22.5 14.4141 21.9141 15.6094 20.9844 16.4141C21.9219 17.3203 22.5 18.5938 22.5 20C22.5 21.4922 21.8438 22.8359 20.8047 23.75C21.8438 24.6641 22.5 26.0078 22.5 27.5C22.5 28.9922 21.8438 30.3359 20.8047 31.25C21.8438 32.1641 22.5 33.5078 22.5 35C22.5 37.7578 20.2578 40 17.5 40H7.5C4.74219 40 2.5 37.7578 2.5 35C2.5 33.5078 3.15625 32.1641 4.19531 31.25C3.15625 30.3359 2.5 28.9922 2.5 27.5C2.5 26.0078 3.15625 24.6641 4.19531 23.75C3.15625 22.8359 2.5 21.4922 2.5 20C2.5 18.5938 3.07813 17.3203 4.01563 16.4141C3.08594 15.6016 2.5 14.4141 2.5 13.0859ZM7.5 18.75C7.5 19.4375 8.0625 20 8.75 20H16.25C16.9375 20 17.5 19.4375 17.5 18.75C17.5 18.0625 16.9375 17.5 16.25 17.5H8.75C8.0625 17.5 7.5 18.0625 7.5 18.75ZM8.75 27.5C8.0625 27.5 7.5 28.0625 7.5 28.75C7.5 29.4375 8.0625 30 8.75 30H16.25C16.9375 30 17.5 29.4375 17.5 28.75C17.5 28.0625 16.9375 27.5 16.25 27.5H8.75Z" fill="black"/>
</svg>
