<svg width="17" height="27" viewBox="0 0 17 27" fill="none" xmlns="http://www.w3.org/2000/svg">
<path fill-rule="evenodd" clip-rule="evenodd" d="M1.88889 3.11538C1.88889 2.83997 1.98839 2.57583 2.16551 2.38108C2.34263 2.18633 2.58285 2.07692 2.83333 2.07692H14.1667C14.4171 2.07692 14.6574 2.18633 14.8345 2.38108C15.0116 2.57583 15.1111 2.83997 15.1111 3.11538V23.8846C15.1111 24.16 15.0116 24.4242 14.8345 24.6189C14.6574 24.8137 14.4171 24.9231 14.1667 24.9231H2.83333C2.58285 24.9231 2.34263 24.8137 2.16551 24.6189C1.98839 24.4242 1.88889 24.16 1.88889 23.8846V3.11538ZM2.83333 0C2.08189 0 1.36122 0.328227 0.829864 0.912475C0.298511 1.49672 0 2.28913 0 3.11538V23.8846C0 24.7109 0.298511 25.5033 0.829864 26.0875C1.36122 26.6718 2.08189 27 2.83333 27H14.1667C14.9181 27 15.6388 26.6718 16.1701 26.0875C16.7015 25.5033 17 24.7109 17 23.8846V3.11538C17 2.28913 16.7015 1.49672 16.1701 0.912475C15.6388 0.328227 14.9181 0 14.1667 0H2.83333ZM5.66667 22.1192C5.49133 22.1192 5.32317 22.1958 5.19919 22.3321C5.07521 22.4685 5.00556 22.6534 5.00556 22.8462C5.00556 23.0389 5.07521 23.2238 5.19919 23.3602C5.32317 23.4965 5.49133 23.5731 5.66667 23.5731H11.3333C11.5087 23.5731 11.6768 23.4965 11.8008 23.3602C11.9248 23.2238 11.9944 23.0389 11.9944 22.8462C11.9944 22.6534 11.9248 22.4685 11.8008 22.3321C11.6768 22.1958 11.5087 22.1192 11.3333 22.1192H5.66667Z" fill="white"/>
</svg>
