<svg width="45" height="44" viewBox="0 0 45 44" fill="none" xmlns="http://www.w3.org/2000/svg">
<path d="M22.4325 12.7783C22.4325 12.7783 16.6669 13.3393 13.6481 10.8808C10.6294 8.42043 11.3175 3.72159 11.3175 3.72159C11.3175 3.72159 17.0831 3.16059 20.1037 5.61909C23.1225 8.07943 22.4325 12.7783 22.4325 12.7783Z" stroke="black" stroke-width="2" stroke-linecap="round" stroke-linejoin="round"/>
<path d="M35.625 25.6666C36.1223 25.6666 36.5992 25.4734 36.9508 25.1296C37.3025 24.7858 37.5 24.3195 37.5 23.8333V20.1666C37.5 19.6804 37.3025 19.214 36.9508 18.8702C36.5992 18.5264 36.1223 18.3333 35.625 18.3333H9.375C8.87772 18.3333 8.40081 18.5264 8.04918 18.8702C7.69754 19.214 7.5 19.6804 7.5 20.1666V23.8333C7.5 24.3195 7.69754 24.7858 8.04918 25.1296C8.40081 25.4734 8.87772 25.6666 9.375 25.6666M35.625 25.6666H9.375M35.625 25.6666L31.875 40.3333H13.125L9.375 25.6666M22.5675 12.7783C22.5675 12.7783 28.3331 13.3393 31.3519 10.8808C34.3706 8.42043 33.6825 3.72159 33.6825 3.72159C33.6825 3.72159 27.9169 3.16059 24.8981 5.61909C21.8794 8.07943 22.5675 12.7783 22.5675 12.7783Z" stroke="black" stroke-width="2" stroke-linecap="round" stroke-linejoin="round"/>
</svg>
