<svg width="52" height="52" viewBox="0 0 52 52" fill="none" xmlns="http://www.w3.org/2000/svg">
<path d="M23.7752 2.7793L21.8772 2.80997L21.9249 5.50189C20.7549 5.55912 19.5857 5.72876 18.4367 6.00405L17.5894 3.13749L15.7645 3.63975L16.6213 6.53395C15.5293 6.91212 14.4763 7.38786 13.4759 7.95498L11.7494 5.17407L10.1213 6.1142L11.8924 8.96263C10.9582 9.62647 10.0949 10.3785 9.31521 11.2075L7.01411 9.05436L5.6938 10.3715L8.1185 12.6377C7.48191 13.4931 6.92352 14.4164 6.46181 15.4092L4.03406 14.3099L3.22766 15.9698L5.78266 17.1275C5.47716 18.0562 5.25017 19.0326 5.11306 20.0583L2.74848 19.9417L2.65332 21.7701L4.97027 21.8835C4.94589 22.7437 4.98215 23.6335 5.08442 24.5511L2.9898 24.7348L3.16113 26.5601L5.21473 26.3793C5.20934 27.0561 5.25027 27.7383 5.34168 28.4188L3.74502 28.808L4.20845 30.5843L5.70009 30.2197C6.51818 33.2997 8.38927 36.2865 11.4796 38.7552C11.5334 39.1837 11.8158 39.5688 12.2637 39.7537C12.9355 40.0307 13.6866 39.7397 13.9744 39.089C14.2621 38.4383 13.9609 37.7125 13.2888 37.4352C13.1273 37.3684 12.9537 37.3331 12.778 37.3313C12.7461 37.331 12.714 37.3323 12.6825 37.3343C12.682 37.3338 12.6801 37.3348 12.6795 37.3343C10.35 35.4745 8.80567 33.334 7.93772 31.1112C6.32186 26.1686 7.92736 22.5862 11.0069 20.3125C9.75061 20.0264 8.4628 19.4925 7.42361 18.6191L8.6708 17.2377C9.47741 17.9156 10.6421 18.3828 11.7559 18.5945C12.637 18.762 13.4974 18.7493 14.038 18.6558C14.8563 18.3287 15.718 18.0637 16.6085 17.8565C16.508 17.7979 16.4075 17.7377 16.3071 17.6758C14.6196 16.635 13.0165 15.0962 12.0764 13.1158L13.7999 12.3531C14.5513 13.9363 15.9027 15.2555 17.3292 16.1354C18.4728 16.8408 19.677 17.2379 20.5284 17.3328C21.4116 17.2965 22.2966 17.3127 23.169 17.3818C21.9158 15.9565 20.8851 14.1187 20.5599 12.0529L22.4388 11.7775C22.71 13.4992 23.6322 15.1282 24.7527 16.3529C25.3966 17.057 26.1142 17.6166 26.7616 17.9944C27.5619 18.21 28.3284 18.4769 29.0468 18.7937C28.4797 17.3178 28.1808 15.6491 28.3771 13.9518L30.2624 14.154C30.0621 15.8847 30.5178 17.6892 31.2715 19.1521C32.0253 20.6147 33.1169 21.7131 33.8486 22.0583L34.3439 22.2941L34.3788 22.824C34.5496 25.356 35.4296 27.707 37.3146 29.5587C38.8449 31.0619 41.0825 32.2546 44.2493 32.8908C41.4718 29.4707 39.442 26.4495 39.1681 22.8792L39.1237 22.2882L39.663 22.0064C40.2029 21.7235 40.765 21.3294 41.2945 20.8364C42.8105 19.4252 43.4131 17.7954 43.3511 16.212C43.2727 16.226 43.1927 16.2334 43.1099 16.2334C42.3866 16.2334 41.799 15.6694 41.799 14.9716C41.799 14.4036 42.1877 13.9244 42.7226 13.7649C42.7104 13.7394 42.7002 13.7136 42.6876 13.6885C42.2958 12.8986 41.7507 12.1885 41.0817 11.5966C40.9691 11.7946 40.8033 11.9597 40.6017 12.0745C40.4001 12.1892 40.1702 12.2495 39.9361 12.2489C39.2128 12.2489 38.6251 11.6851 38.6251 10.9873C38.6251 10.7256 38.7091 10.4818 38.8506 10.2797C38.0348 9.98695 37.1372 9.83749 36.1813 9.87552C35.3567 9.90855 34.4332 10.1225 33.4708 10.4972L32.7793 8.84307L32.7602 8.82788L32.7666 8.81563L32.7602 8.7972C32.7678 8.79426 32.7749 8.79093 32.7826 8.78809L34.1472 6.41448L32.4872 5.52629L31.2178 7.73761C30.4102 7.24534 29.5545 6.83092 28.6629 6.50033L29.323 3.95228L27.4821 3.50833L26.8504 5.94907C25.8622 5.71122 24.8471 5.56843 23.8226 5.511L23.7752 2.7793ZM33.741 14.1936C34.4641 14.1936 35.0517 14.7575 35.0517 15.4553C35.0517 16.153 34.464 16.7201 33.7409 16.7201C33.0176 16.7201 32.4332 16.153 32.4332 15.4553C32.4332 14.7575 33.0176 14.1935 33.7408 14.1935L33.741 14.1936ZM45.2206 16.5792C45.18 18.1409 44.6546 19.7282 43.5479 21.1363C46.3341 22.4433 48.8317 24.5764 49.7846 28.5355C50.2877 23.5909 49.2811 19.0593 45.2206 16.5792ZM35.8578 17.8869C36.5809 17.8869 37.1654 18.4508 37.1654 19.1487C37.1654 19.8464 36.581 20.4135 35.8578 20.4135C35.1346 20.4135 34.547 19.8464 34.547 19.1487C34.547 18.4509 35.1346 17.8869 35.8578 17.8869ZM21.7344 27.3012C21.5023 27.3003 21.2905 27.3145 21.1092 27.335C20.775 29.5292 20.6757 31.3621 20.7981 33.2823C20.0207 32.8771 19.2005 32.5992 18.3638 32.4677C16.3275 32.147 14.6226 32.7451 13.381 33.9745C12.9337 34.4175 12.5505 34.9486 12.2447 35.5547C12.4257 35.5245 12.6086 35.5055 12.7938 35.5057C13.2095 35.506 13.6307 35.5841 14.0347 35.7507C15.6508 36.4174 16.4099 38.2484 15.7199 39.8085C15.0661 41.2874 13.3274 42.0244 11.7718 41.5298C12.7099 45.3739 15.6712 48.5999 19.1224 49.1432C19.6044 49.2191 20.257 49.2295 20.8175 49.1494C21.3776 49.0693 21.8354 48.8701 21.9631 48.7574L22.582 48.2092L23.2231 48.7389C23.3827 48.8707 23.802 49.0131 24.3467 49.0329C24.891 49.0527 25.5265 48.968 26.0285 48.8429C30.0337 47.8474 33.4129 43.1377 33.211 38.4763C33.0364 34.4453 30.0755 31.8871 26.8157 31.9468H26.8125C26.3683 31.9558 25.872 32.0334 25.3557 32.1615C24.5489 32.3617 23.7703 32.7038 23.0421 33.1627C23.2825 31.6525 23.8146 30.2172 24.6321 28.6669C24.0901 27.5769 22.7402 27.3057 21.7345 27.301L21.7344 27.3012Z" fill="black"/>
</svg>
