<svg width="46" height="48" viewBox="0 0 46 48" fill="none" xmlns="http://www.w3.org/2000/svg">
<path d="M44.0833 8.96719V5.44934L40.6333 5.05847C40.4417 5.05847 39.2917 4.86304 37.375 4.86304C29.5167 4.86304 23.7667 7.20827 20.5083 11.3124C18.0167 9.74893 14.5667 8.77175 10.5417 8.77175C8.625 8.77175 7.28333 8.96719 7.28333 8.96719L3.64166 9.55349L3.83333 12.8759C4.025 18.739 6.9 29.8788 16.8667 29.8788H17.25V36.5236C9.96666 37.5008 3.83333 40.0415 3.83333 40.0415V43.9502H42.1667V40.0415C42.1667 40.0415 36.0333 37.5008 28.75 36.5236V30.2697C40.825 30.0742 44.0833 16.1983 44.0833 8.96719ZM23 36.1328H21.0833V25.1884C21.0833 25.1884 20.7 18.5435 15.3333 18.5435C15.3333 18.5435 18.2083 20.107 18.975 25.7747C18.2083 25.9701 17.4417 25.9701 16.8667 25.9701C8.05 25.9701 7.66666 12.8759 7.66666 12.8759C7.66666 12.8759 8.81666 12.6805 10.5417 12.6805C14.1833 12.6805 20.125 13.4622 21.85 18.739C22.8083 9.94437 32.5833 8.77175 37.375 8.77175C39.1 8.77175 40.25 8.96719 40.25 8.96719C40.25 8.96719 40.25 26.5564 28.175 26.5564H26.8333C26.8333 22.6477 30.6667 16.7846 30.6667 16.7846C24.9167 18.739 24.9167 26.361 24.9167 26.361V36.1328H23Z" fill="black"/>
</svg>
