<svg width="56" height="43" viewBox="0 0 56 43" fill="none" xmlns="http://www.w3.org/2000/svg">
<path d="M26.3703 1.84011C16.5594 1.82751 7.44955 2.04755 7.56439 2.53466L9.97939 5.56986C16.4719 5.14154 22.6625 4.98617 28.8641 5.01808C34.6828 5.04747 40.5125 5.24232 46.5938 5.52954L50.0063 2.73454C49.5141 2.16849 37.4938 1.85439 26.3703 1.84011ZM26.786 6.52728C21.4156 6.53736 16.0344 6.69441 10.4136 7.05806C8.03033 17.4436 6.71017 30.1168 9.81205 37.9358L6.92126 40.5393C20.9344 41.3455 35.1969 41.6059 48.7703 41.0684L45.5 38.0785C47.611 29.1594 46.9547 16.9817 45.5219 6.99423C39.9219 6.73724 34.5516 6.56591 29.1922 6.53316L43.8703 16.8809H36.0719C36.4875 18.8209 38.3031 21.4412 40.2172 23.8684C41.3 25.2457 42.4047 26.5811 43.2469 27.7568C44.0891 28.9326 44.7344 29.9152 44.7344 30.9063C44.7344 33.2578 42.6672 35.1895 39.6266 36.4408C36.586 37.7006 32.5063 38.3809 28 38.3809C23.4938 38.3809 19.4141 37.7006 16.3735 36.4408C13.3328 35.1895 11.2656 33.2578 11.2656 30.9063C11.2656 29.8984 11.9438 28.9158 12.8297 27.7233C13.7156 26.5307 14.8641 25.1869 15.9797 23.7928C17.9485 21.3488 19.7422 18.7117 19.9938 16.8809H11.375L26.786 6.52728ZM27.9891 7.73413L16.625 15.3692H21.9078L21.9844 16.0578C22.2797 18.7369 19.9172 21.7688 17.6531 24.5906C16.5156 26.0016 15.3781 27.3369 14.5469 28.4707C13.7047 29.5961 13.2344 30.5703 13.2344 30.9063C13.2344 32.1324 14 33.2158 15.4328 34.1481C21.361 33.577 24.4016 33.2578 27.0703 33.1906C27.136 32.4768 27.2563 31.7629 27.4094 31.0742C23.4063 31.2674 19.7203 30.4443 16.0891 29.4533C17.7188 27.0346 20.7156 25.3465 23.4172 25.3549C23.9203 25.3549 24.4125 25.4053 24.8828 25.5313C26.1078 25.8336 27.2125 27.5217 27.9453 28.941C28.186 28.0592 28.4156 27.3033 28.5141 26.749V26.7406C28.6125 26.2199 28.3391 24.725 27.9891 23.4904C27.7375 22.6002 27.475 21.8192 27.3438 21.4496C26.6547 21.4496 26.0422 21.3488 25.6375 21.0297C22.8594 18.8125 24.6641 14.7141 27.0485 12.4297C28.7438 14.5965 30.9531 16.9313 33.1735 18.5438C32.6922 19.7867 31.8172 20.7861 30.1219 21.2313C29.8922 21.2481 29.6078 21.2733 29.3235 21.3068C29.4766 21.7436 29.6953 22.3986 29.9141 23.1629C30.0563 23.6416 30.1875 24.1371 30.2969 24.6326C30.8766 24.2211 31.5438 23.8432 32.0906 23.8264H32.211C35.2735 24.0447 38.7406 26.3123 39.6156 29.6213C36.6078 28.5631 33.1625 29.1762 30.4391 27.085C30.1328 28.6471 29.2797 30.9986 29.05 33.199C31.686 33.2662 34.7266 33.5854 40.5672 34.1481C42 33.2158 42.7656 32.1324 42.7656 30.9063C42.7656 30.5535 42.3172 29.5961 41.5188 28.4875C40.7203 27.3705 39.6375 26.052 38.5328 24.6494C36.3344 21.8611 34.0156 18.8293 34.0156 16.125V15.3692H38.8172L27.9891 7.73413ZM28 34.6772C25.561 34.6772 22.9797 34.9291 18.0797 35.4078C20.6719 36.3233 24.15 36.8692 28 36.8692C31.85 36.8692 35.3281 36.3233 37.9203 35.4078C33.0203 34.9291 30.4391 34.6772 28 34.6772Z" fill="black"/>
</svg>
