<svg width="54" height="52" viewBox="0 0 54 52" fill="none" xmlns="http://www.w3.org/2000/svg">
<path d="M28.3711 2.49234C28.0442 2.50351 27.77 2.49234 27.5696 2.51367C27.2743 2.53906 27.0739 2.55937 26.8102 2.74015L26.7047 9.78047C27.0211 9.90031 27.3797 10.0141 27.7278 10.0354C28.1602 10.0659 28.445 10.0141 28.6981 9.79062L28.3711 2.49234ZM17.4657 6.34156C17.4762 6.94586 17.4973 7.45976 17.6239 7.77765C17.8665 8.30781 18.3622 8.78109 20.3661 9.1914L22.7391 9.67687L20.6825 10.8773C18.9422 11.9031 16.97 12.8477 15.2508 13.5687C15.9047 13.6398 16.5481 13.7109 17.1704 13.7109C19.0477 13.7008 20.8196 13.3148 23.0028 11.8727L24.6797 10.7656L24.7219 8.29257C22.0325 7.72179 19.8176 7.10632 17.4657 6.34156ZM36.5766 7.0007C34.52 7.68015 32.9485 8.11484 30.6282 8.43882L30.7231 10.3492L30.5438 10.6031C29.8266 11.6187 28.6032 11.9539 27.6012 11.893C26.5993 11.832 25.745 11.4969 25.1333 11.1211L24.7958 10.9078L24.5637 12.7359C24.3633 14.4727 24.3422 15.6102 24.0153 17.0422C25.5551 15.9859 26.5887 15.1227 27.8649 13.2539L28.6243 12.1672L29.4786 13.1828C30.6282 14.5031 32.5161 15.5086 34.5938 16.1281C33.9926 15.468 33.4442 14.6555 33.3282 13.5891L33.1805 12.157L34.6465 12.6242C36.8192 13.2945 37.4836 13.2437 38.2219 13C38.5278 12.9086 38.9286 12.7359 39.3399 12.543L30.8286 9.73882L33.7079 8.91109C35.2055 8.48046 35.9122 7.98687 36.3024 7.49531C36.4079 7.34297 36.5028 7.1764 36.5766 7.0007ZM42.7676 13.4062L42.5778 13.4469C40.7426 13.8734 40.0149 14.4117 38.8864 14.7773C38.1059 15.0109 37.2411 15.0617 36.0704 14.8687C36.1125 14.9297 36.1758 14.9906 36.2286 15.0516C36.7559 15.6102 37.5153 16.2297 38.2114 17.1031L39.6036 18.85L37.2938 18.5859C34.2247 18.2305 31.029 17.1742 28.8247 15.2445C27.1055 17.418 25.5024 18.332 22.7918 20.1805L20.0708 22.0492L21.2626 19.0937C22.1485 16.9508 22.2434 15.9148 22.3911 14.3914C20.5665 15.2445 18.8368 15.5594 17.1704 15.5695C15.1981 15.5695 13.3208 15.1937 11.3485 14.9195C11.3063 14.9195 11.2641 14.9297 11.2219 14.9398C4.91068 19.632 3.95091 26.6703 3.95829 30.2047C3.97622 39.7719 6.77747 49.1664 27.4219 49.5016C43.1262 49.7656 50.1399 39.4062 50.045 29.7781C49.9606 23.6234 48.7477 17.1437 42.7676 13.4062ZM15.5145 16.8898C16.9067 16.8695 18.2989 17.3367 18.4993 18.1492C8.78771 22.4047 8.83939 28.082 7.4029 34.0742C6.2322 28.3055 6.63193 21.6328 13.2258 17.4586C13.8165 17.0727 14.6813 16.9 15.5145 16.8898Z" fill="black"/>
</svg>
