<svg width="56" height="51" viewBox="0 0 56 51" fill="none" xmlns="http://www.w3.org/2000/svg">
<path d="M43.75 28.6875H26.9719L31.874 24.223C33.6464 25.0359 35.5992 25.4692 37.5834 25.49C39.5807 25.4948 41.5406 24.9971 43.2469 24.0517C48.4356 21.1909 51.2159 14.5689 50.6844 6.33714C50.6594 5.94724 50.478 5.57927 50.1748 5.3031C49.8715 5.02693 49.4675 4.86178 49.0394 4.83901C40.0006 4.35491 32.7294 6.88698 29.5859 11.6124C27.5406 14.6904 27.4881 18.4078 29.3978 21.9718L26.25 24.8386L23.579 22.4061C24.8915 19.7665 24.7975 17.0272 23.275 14.7402C20.8972 11.1562 15.4459 9.24573 8.69092 9.60632C8.26354 9.62951 7.86032 9.79458 7.55757 10.0703C7.25483 10.346 7.07358 10.7132 7.04811 11.1024C6.64998 17.2523 8.74998 22.2169 12.6875 24.3844C14.0047 25.1171 15.519 25.5032 17.0625 25.5C18.4627 25.4873 19.8439 25.2028 21.1137 24.6653L23.7759 27.0937L22.0259 28.6875H12.25C11.7859 28.6875 11.3407 28.8554 11.0125 29.1543C10.6844 29.4532 10.5 29.8585 10.5 30.2812C10.5 30.7039 10.6844 31.1093 11.0125 31.4082C11.3407 31.7071 11.7859 31.875 12.25 31.875H14.3478L17.2375 43.7225C17.4061 44.4325 17.8377 45.068 18.4598 45.5225C19.082 45.977 19.8568 46.2228 20.6544 46.2187H35.3478C36.1451 46.2221 36.9196 45.976 37.5415 45.5216C38.1635 45.0672 38.5953 44.4321 38.7647 43.7225L41.6544 31.875H43.75C44.2141 31.875 44.6592 31.7071 44.9874 31.4082C45.3156 31.1093 45.5 30.7039 45.5 30.2812C45.5 29.8585 45.3156 29.4532 44.9874 29.1543C44.6592 28.8554 44.2141 28.6875 43.75 28.6875Z" fill="black"/>
</svg>
