<svg width="49" height="42" viewBox="0 0 49 42" fill="none" xmlns="http://www.w3.org/2000/svg">
<g clip-path="url(#clip0_304_37)">
<mask id="mask0_304_37" style="mask-type:luminance" maskUnits="userSpaceOnUse" x="0" y="0" width="49" height="42">
<path d="M0 0H49V42H0V0Z" fill="white"/>
</mask>
<g mask="url(#mask0_304_37)">
<path d="M6.125 22.3125C5.27975 22.3125 4.59375 24.0752 4.59375 26.25C4.59375 28.4248 5.27975 30.1875 6.125 30.1875C6.97025 30.1875 7.65625 28.4248 7.65625 26.25C7.65625 24.0752 6.97025 22.3125 6.125 22.3125Z" fill="black"/>
<path fill-rule="evenodd" clip-rule="evenodd" d="M23.8263 1.35845C22.822 0.497935 21.4604 0.0141974 20.0404 0.0134591C18.6204 0.0127208 17.2581 0.495042 16.2527 1.35451L10.2548 6.48376C8.10099 8.32966 6.89087 10.8333 6.89062 13.4439V17.052C6.64563 17.059 6.39807 17.0625 6.14797 17.0625H6.125C4.58916 17.0625 3.43459 17.7411 2.70725 18.4013C1.98756 19.0536 1.47919 19.8581 1.11475 20.6351C0.385875 22.2036 0 24.1894 0 26.25C0 28.3106 0.382812 30.2978 1.11628 31.8662C1.47919 32.6432 1.98756 33.4478 2.70878 34.1014C3.43306 34.7603 4.58763 35.4375 6.125 35.4375H6.13725C8.97772 35.4375 11.6896 35.2275 14.2682 34.8521L14.5867 35.5832C15.4024 37.4668 16.871 39.0913 18.7953 40.2386C20.7196 41.3859 23.0074 42.001 25.3514 42.0013H32.9372C34.3586 42.0013 35.7218 41.5173 36.7268 40.6558C37.7319 39.7944 38.2966 38.6259 38.2966 37.4076V34.7826C38.2945 34.3678 38.2333 33.9693 38.1128 33.5869C40.1334 33.8902 42.2139 33.5615 43.9755 32.6605C45.737 31.7596 47.0626 30.3464 47.7107 28.6781C48.9878 25.3956 47.4198 22.0854 44.4644 20.3201C45.0688 19.7601 45.6129 19.2369 46.0967 18.7504C46.4026 18.4426 46.6723 18.1098 46.9022 17.7568C48.732 15.6411 48.1884 13.041 47.1717 11.1497C46.0967 9.14945 44.1628 7.20039 41.7235 5.6372C39.3317 4.10814 36.6688 3.08439 34.176 2.74576C31.8684 2.43207 28.9697 2.64076 27.0495 4.45464L27.0342 4.46776C26.7718 4.00274 26.4198 3.57899 25.993 3.21432L23.8263 1.35845ZM23.8599 5.09907L23.8278 5.0702L21.6611 3.21432C21.2306 2.84547 20.6469 2.63815 20.0383 2.6379C19.4296 2.63765 18.8457 2.8445 18.4148 3.21301L14.7398 6.35514C15.2063 7.45245 15.9711 8.43868 16.9708 9.23214C17.8161 9.8792 18.7854 10.2979 19.8389 10.3504C20.2227 10.3696 20.6178 10.3368 21.0241 10.2519L23.8263 7.85664C24.2516 7.49241 24.4934 6.99974 24.4997 6.48441C24.506 5.96907 24.2763 5.47086 23.8599 5.09907ZM12.42 8.34095L13.5638 7.36182C14.1028 8.3987 14.9205 9.42245 15.951 10.2126C16.9096 10.9476 18.0856 11.4988 19.4055 11.6366L17.8329 12.9806C17.7619 13.0417 17.7056 13.1142 17.6672 13.1939C17.6288 13.2736 17.6092 13.359 17.6094 13.4453V15.246C16.5037 14.7537 15.3052 14.4329 14.0691 14.2984C12.6912 14.1493 11.2926 14.2344 9.95312 14.5491V13.4453C9.95276 12.4972 10.1703 11.5583 10.5933 10.6823C11.0163 9.80623 11.6365 9.0102 12.4184 8.33964M16.3936 16.2015C14.3608 15.4283 12.0661 15.3273 9.95159 15.918V18.1138C11.1184 17.9799 12.5088 17.6348 13.8103 17.2082C14.8026 16.8853 15.7091 16.5257 16.3936 16.2015ZM9.83675 19.4473C9.46415 19.4963 9.08593 19.5383 8.70209 19.5733C9.11553 20.0196 9.44628 20.5577 9.71119 21.1221C10.3558 22.5015 10.7188 24.3141 10.7188 26.25C10.7188 28.1859 10.3558 30.0011 9.71272 31.3779C9.48303 31.8675 9.20434 32.3361 8.86441 32.743C10.5488 32.6576 12.178 32.4936 13.7537 32.2639C14.5729 29.8095 14.5806 27.0625 13.9298 24.6776C13.256 22.2023 11.9254 20.2873 10.2563 19.4027C10.1173 19.4199 9.97795 19.4348 9.83828 19.4473M12.2041 19.0444C13.7629 20.3175 14.8455 22.2692 15.4212 24.3784C15.7244 25.4914 15.8959 26.6779 15.9219 27.8867C15.9554 29.2682 15.7866 30.6479 15.4197 31.9935C15.6422 31.9541 15.8643 31.9126 16.0858 31.8688C18.4853 31.3753 21.4712 30.5366 23.8063 29.7465C25.6397 29.0851 27.4243 28.3285 29.1504 27.4811L29.1565 27.4785L29.1688 27.4733C30.256 27.0113 32.3798 25.7381 34.4945 24.3718C35.9137 23.4588 37.3051 22.5143 38.6671 21.5394C39.4399 20.9383 40.156 20.3538 40.8155 19.7859C39.9304 18.648 38.7789 17.5285 37.4513 16.4758C36.4858 15.7115 35.4639 15.0013 34.3919 14.3496C31.6509 12.6748 28.6114 11.3597 25.8582 10.6628C26.1879 10.2821 26.4973 9.90589 26.7862 9.53401C29.5945 10.3071 32.5896 11.6366 35.2815 13.2799C37.8908 14.8746 40.2596 16.7908 41.9042 18.8239C42.6055 18.1873 43.2272 17.5901 43.7662 17.0468C43.9938 16.8184 44.1791 16.5773 44.322 16.3236C44.3608 16.2842 44.3986 16.2435 44.4353 16.2015C45.6558 14.8011 44.9774 12.4806 42.9638 10.2834L42.9577 10.2782C42.8008 10.1072 42.6389 9.9396 42.4723 9.77551C41.6966 9.02224 40.8314 8.34042 39.8906 7.74114C35.7562 5.09514 31.0553 4.46645 29.2484 6.28426C28.9544 6.51526 28.6972 6.78957 28.5012 7.10064C27.0771 9.35814 24.7174 12.4031 21.2185 14.9323C23.837 15.7631 25.7235 17.1741 26.9868 19.1231C28.4169 21.3281 29.0141 24.1684 29.0846 27.5139C28.5946 27.7537 28.0933 27.9886 27.5809 28.2188H27.5625C27.5645 26.8415 27.4752 25.5749 27.2945 24.4191C27.0051 22.5855 26.4722 21.0328 25.6484 19.7597C24.4387 17.8959 22.5737 16.5887 19.7684 15.9062C19.1457 16.2947 18.4924 16.6618 17.8084 17.0074C16.9739 17.4694 15.7106 17.9944 14.3585 18.4354C13.6649 18.6624 12.9329 18.8724 12.2041 19.0444ZM37.3778 24.1264C36.7531 24.5464 36.0885 24.9861 35.4178 25.4192C33.8253 26.4482 32.1471 27.4785 30.8899 28.144L37.315 30.6469C38.0165 30.9203 38.7771 31.0643 39.5477 31.0694C40.3182 31.0746 41.0814 30.9408 41.7878 30.6769C42.4941 30.4129 43.1278 30.0246 43.6478 29.5371C44.1677 29.0496 44.5623 28.4739 44.8059 27.8473C45.7446 25.4363 44.2929 23.0029 41.8506 22.0553C40.1111 22.8388 38.8371 24.2642 38.0531 25.9376C37.9582 26.1433 37.8699 26.3519 37.7882 26.5637C37.2876 27.8647 37.0889 29.2371 37.2033 30.6036L35.6368 29.9933C35.6226 28.6361 35.8784 27.2868 36.3932 26.0033L36.4116 25.956C36.481 25.7845 36.555 25.6152 36.6336 25.4481C36.8449 24.9966 37.0945 24.5516 37.3778 24.1264ZM24.0636 31.0695C21.6792 31.8623 19.2417 32.5324 16.7641 33.0763L17.4547 34.6697C18.0533 36.0511 19.1308 37.2424 20.5424 38.0835C21.954 38.9246 23.6322 39.3753 25.3514 39.375H32.9372C33.5464 39.375 34.1306 39.1676 34.5613 38.7984C34.9921 38.4292 35.2341 37.9284 35.2341 37.4063V34.7813C35.2341 34.2591 34.9921 33.7584 34.5613 33.3891C34.1306 33.0199 33.5464 32.8125 32.9372 32.8125H27.8014C26.2854 33.7418 25.5336 35.0083 25.209 36.2552C24.9742 37.1819 24.9436 38.1381 25.1186 39.0745C25.1401 39.1795 25.163 39.2792 25.1875 39.3737C24.6521 39.3647 24.1188 39.312 23.595 39.2162C23.3797 37.9989 23.4605 36.7566 23.8324 35.5675V35.5635C24.1386 34.6198 24.673 33.6604 25.5351 32.8125H25.3514C25.1953 32.8123 25.043 32.7712 24.9149 32.6947C24.7868 32.6183 24.6891 32.5101 24.6347 32.3846L24.0636 31.0695ZM9.1875 26.2172C9.1875 29.8554 7.82009 32.8046 6.13266 32.8125H6.125L5.99178 32.8073C4.36253 32.655 3.0625 29.7793 3.0625 26.25V26.2172C3.0625 22.575 4.43297 19.6219 6.125 19.6219C7.81703 19.6219 9.1875 22.575 9.1875 26.2172Z" fill="black"/>
</g>
</g>
<defs>
<clipPath id="clip0_304_37">
<rect width="49" height="42" fill="white"/>
</clipPath>
</defs>
</svg>
